<?xml version="1.0" encoding="UTF-8"?>
<svg width="32px" height="32px" viewBox="0 0 32 32" version="1.1" xmlns="http://www.w3.org/2000/svg" xmlns:xlink="http://www.w3.org/1999/xlink">
    <!-- Generator: sketchtool 52.6 (67491) - http://www.bohemiancoding.com/sketch -->
    <title>1F396E79-704A-4B98-A5D9-46E8C401B934</title>
    <desc>Created with sketchtool.</desc>
    <g id="Desktop" stroke="none" stroke-width="1" fill="none" fill-rule="evenodd">
        <g id="Home" transform="translate(-1216.000000, -24.000000)" stroke="#51B5B1" stroke-width="2">
            <g id="Header">
                <g id="sign-in">
                    <g transform="translate(1212.000000, 25.000000)">
                        <g id="avatar" transform="translate(5.000000, 0.000000)">
                            <path d="M30,15 C30,23.2843333 23.2843333,30 15,30 C6.71566667,30 0,23.2843333 0,15 C0,6.71566667 6.71566667,0 15,0 C23.2843333,0 30,6.71566667 30,15 Z" id="Stroke-1"></path>
                            <path d="M20.5,12.5 C20.5,15.5376667 18.0376667,18 15,18 C11.9623333,18 9.5,15.5376667 9.5,12.5 C9.5,9.46233333 11.9623333,7 15,7 C18.0376667,7 20.5,9.46233333 20.5,12.5 Z" id="Stroke-3"></path>
                            <path d="M25.6249167,25.1656167 C23.96425,20.9687833 19.8709167,17.99995 15.08325,17.99995 C10.2525833,17.99995 6.13025,21.02345 4.49925,25.28045" id="Stroke-5"></path>
                        </g>
                    </g>
                </g>
            </g>
        </g>
    </g>
</svg>