<?xml version="1.0" encoding="UTF-8"?>
<svg width="255px" height="43px" viewBox="0 0 255 43" version="1.1" xmlns="http://www.w3.org/2000/svg" xmlns:xlink="http://www.w3.org/1999/xlink">
    <!-- Generator: sketchtool 52.6 (67491) - http://www.bohemiancoding.com/sketch -->
    <title>152A1DBD-13FE-49A7-92EF-26EDF9C6AD48</title>
    <desc>Created with sketchtool.</desc>
    <g id="Desktop" stroke="none" stroke-width="1" fill="none" fill-rule="evenodd">
        <g id="Home" transform="translate(-190.000000, -1355.000000)" fill="#9C9C9C" fill-rule="nonzero">
            <g id="Footer" transform="translate(0.000000, 1234.000000)">
                <g id="Globo-Logo-white" transform="translate(190.000000, 121.000000)">
                    <g id="text" transform="translate(49.708861, 10.329114)">
                        <polygon id="Shape" points="3.46670886 1.8721519 3.46670886 18.2760759 9.08962025 18.2760759 9.08962025 20.9874684 0.581012658 20.9874684 0.581012658 1.8721519"></polygon>
                        <path d="M12.1173418,11.3426582 C12.1173418,8.65063291 13.1050633,6.33949367 15.0740506,4.40924051 C17.0365823,2.47898734 19.3993671,1.51063291 22.1559494,1.51063291 C24.8802532,1.51063291 27.2172152,2.48544304 29.1603797,4.43506329 C31.1164557,6.38468354 32.0977215,8.72164557 32.0977215,11.4524051 C32.0977215,14.2025316 31.1164557,16.533038 29.1539241,18.4503797 C27.178481,20.3741772 24.8027848,21.3360759 22.0074684,21.3360759 C19.5413924,21.3360759 17.3206329,20.4839241 15.3581013,18.7731646 C13.2018987,16.8816456 12.1173418,14.4026582 12.1173418,11.3426582 Z M15.0288608,11.3813924 C15.0288608,13.4924051 15.7389873,15.235443 17.1592405,16.5911392 C18.573038,17.9532911 20.1998734,18.6375949 22.0526582,18.6375949 C24.0603797,18.6375949 25.7517722,17.9468354 27.1268354,16.5588608 C28.5083544,15.1579747 29.1926582,13.4472152 29.1926582,11.433038 C29.1926582,9.39303797 28.5148101,7.68873418 27.1526582,6.30721519 C25.796962,4.91924051 24.1249367,4.22848101 22.1236709,4.22848101 C20.1353165,4.22848101 18.4568354,4.91924051 17.0817722,6.30721519 C15.7131646,7.67582278 15.0288608,9.36721519 15.0288608,11.3813924 Z" id="Shape"></path>
                        <path d="M37.7593671,20.9874684 L37.7593671,1.8721519 L40.6321519,1.8721519 C41.9103797,1.8721519 42.9303797,1.96898734 43.6921519,2.16911392 C44.4603797,2.36924051 45.1059494,2.69848101 45.6353165,3.16974684 C46.1711392,3.65392405 46.5972152,4.26075949 46.9135443,4.99025316 C47.2363291,5.72620253 47.3977215,6.46860759 47.3977215,7.21746835 C47.3977215,8.58607595 46.8748101,9.74810127 45.8225316,10.6970886 C46.8360759,11.0456962 47.6365823,11.6525316 48.2240506,12.5175949 C48.8179747,13.3762025 49.1149367,14.3768354 49.1149367,15.513038 C49.1149367,17.0043038 48.5855696,18.2696203 47.5332911,19.3025316 C46.9006329,19.9351899 46.1840506,20.3806329 45.39,20.6259494 C44.5249367,20.8648101 43.4403797,20.9874684 42.1363291,20.9874684 L37.7593671,20.9874684 Z M40.6450633,10.0773418 L41.5488608,10.0773418 C42.6205063,10.0773418 43.4081013,9.83848101 43.9051899,9.36721519 C44.4022785,8.88949367 44.6540506,8.19227848 44.6540506,7.26911392 C44.6540506,6.37177215 44.3958228,5.68746835 43.8858228,5.22265823 C43.3758228,4.7578481 42.6334177,4.52544304 41.6586076,4.52544304 L40.6450633,4.52544304 L40.6450633,10.0773418 Z M40.6450633,18.2760759 L42.4268354,18.2760759 C43.7308861,18.2760759 44.6863291,18.0178481 45.2996203,17.5078481 C45.9451899,16.9526582 46.2679747,16.255443 46.2679747,15.4032911 C46.2679747,14.576962 45.9581013,13.8862025 45.3383544,13.324557 C44.7379747,12.7693671 43.6598734,12.4917722 42.1040506,12.4917722 L40.6450633,12.4917722 L40.6450633,18.2760759 Z" id="Shape"></path>
                        <path d="M53.6791139,11.3426582 C53.6791139,8.65063291 54.6668354,6.33949367 56.6358228,4.40924051 C58.5983544,2.47898734 60.9611392,1.51063291 63.7177215,1.51063291 C66.4420253,1.51063291 68.7789873,2.48544304 70.7221519,4.43506329 C72.6782278,6.38468354 73.6594937,8.72164557 73.6594937,11.4524051 C73.6594937,14.2025316 72.6782278,16.533038 70.7156962,18.4503797 C68.7402532,20.3741772 66.364557,21.3360759 63.5692405,21.3360759 C61.1031646,21.3360759 58.8824051,20.4839241 56.9198734,18.7731646 C54.7636709,16.8816456 53.6791139,14.4026582 53.6791139,11.3426582 Z M56.5906329,11.3813924 C56.5906329,13.4924051 57.3007595,15.235443 58.7210127,16.5911392 C60.1348101,17.9532911 61.7616456,18.6375949 63.6144304,18.6375949 C65.6221519,18.6375949 67.3135443,17.9468354 68.6886076,16.5588608 C70.0701266,15.1579747 70.7544304,13.4472152 70.7544304,11.433038 C70.7544304,9.39303797 70.0765823,7.68873418 68.7144304,6.30721519 C67.3587342,4.91924051 65.6867089,4.22848101 63.685443,4.22848101 C61.6970886,4.22848101 60.0186076,4.91924051 58.6435443,6.30721519 C57.2749367,7.67582278 56.5906329,9.36721519 56.5906329,11.3813924 Z" id="Shape"></path>
                        <polygon id="Shape" points="78.6497468 20.9874684 82.6716456 0.432531646 89.2306329 15.2935443 96.028481 0.432531646 99.6436709 20.9874684 96.686962 20.9874684 94.8406329 9.44468354 89.1789873 21.865443 83.6787342 9.43177215 81.6258228 20.9810127 78.6497468 20.9810127"></polygon>
                        <path d="M116.957848,16.3458228 L108.772025,16.3458228 L106.641646,20.9874684 L103.536456,20.9874684 L112.994051,0.671392405 L122.115949,20.9874684 L118.959114,20.9874684 L116.957848,16.3458228 Z M115.782911,13.6344304 L112.948861,7.1335443 L109.979241,13.6344304 L115.782911,13.6344304 Z" id="Shape"></path>
                        <polygon id="Shape" points="126.538101 20.9874684 126.538101 0.568101266 140.482405 15.151519 140.482405 1.8721519 143.368101 1.8721519 143.368101 22.1559494 129.423797 7.60481013 129.423797 20.9874684 126.538101 20.9874684"></polygon>
                        <polygon id="Shape" points="155.246582 4.5835443 155.246582 20.9874684 152.360886 20.9874684 152.360886 4.5835443 147.964557 4.5835443 147.964557 1.8721519 159.63 1.8721519 159.63 4.5835443"></polygon>
                        <polygon id="Shape" points="167.118608 1.8721519 167.118608 20.9874684 164.232911 20.9874684 164.232911 1.8721519"></polygon>
                        <path d="M187.867215,2.89860759 L187.867215,6.31367089 C186.201646,4.91924051 184.477975,4.22202532 182.689747,4.22202532 C180.727215,4.22202532 179.068101,4.9256962 177.725316,6.33949367 C176.36962,7.74037975 175.691772,9.45759494 175.691772,11.4911392 C175.691772,13.4988608 176.36962,15.1902532 177.725316,16.5653165 C179.081013,17.9403797 180.740127,18.6311392 182.702658,18.6311392 C183.716203,18.6311392 184.581266,18.4632911 185.291392,18.1340506 C185.68519,17.9662025 186.098354,17.7467089 186.52443,17.4626582 C186.950506,17.1850633 187.395949,16.8429114 187.867215,16.4491139 L187.867215,19.9287342 C186.214557,20.8583544 184.48443,21.3296203 182.67038,21.3296203 C179.93962,21.3296203 177.609114,20.3741772 175.672405,18.4697468 C173.748608,16.5459494 172.786709,14.2283544 172.786709,11.5105063 C172.786709,9.07670886 173.593671,6.90759494 175.201139,4.99670886 C177.183038,2.65974684 179.745949,1.49126582 182.889873,1.49126582 C184.607089,1.49772152 186.266203,1.96898734 187.867215,2.89860759 Z" id="Shape"></path>
                        <path d="M204.348608,4.71911392 L202.011646,6.10708861 C201.572658,5.34531646 201.159494,4.85468354 200.759241,4.62227848 C200.346076,4.35759494 199.816709,4.22848101 199.164684,4.22848101 C198.364177,4.22848101 197.699241,4.45443038 197.169873,4.90632911 C196.640506,5.35177215 196.375823,5.91341772 196.375823,6.59126582 C196.375823,7.52088608 197.066582,8.27620253 198.454557,8.8443038 L200.358987,9.62544304 C201.908354,10.2516456 203.044557,11.0198734 203.761139,11.9236709 C204.477722,12.8274684 204.839241,13.9378481 204.839241,15.2483544 C204.839241,17.0043038 204.251772,18.4568354 203.083291,19.6059494 C201.901899,20.761519 200.436456,21.3425316 198.686962,21.3425316 C197.027848,21.3425316 195.659241,20.8518987 194.574684,19.8706329 C193.509494,18.8893671 192.844557,17.5078481 192.579873,15.7260759 L195.504304,15.0805063 C195.633418,16.2037975 195.865823,16.978481 196.195063,17.4110127 C196.788987,18.2373418 197.654051,18.6505063 198.796709,18.6505063 C199.694051,18.6505063 200.442911,18.3470886 201.036835,17.7467089 C201.630759,17.1463291 201.927722,16.3781013 201.927722,15.4549367 C201.927722,15.0805063 201.876076,14.7448101 201.772785,14.4349367 C201.669494,14.1250633 201.508101,13.8410127 201.288608,13.5827848 C201.069114,13.324557 200.785063,13.0792405 200.442911,12.8532911 C200.094304,12.6273418 199.681139,12.4078481 199.203418,12.2012658 L197.357089,11.433038 C194.742532,10.3291139 193.432025,8.70873418 193.432025,6.57835443 C193.432025,5.14518987 193.980759,3.94443038 195.078228,2.97607595 C196.175696,2.00126582 197.544304,1.51708861 199.177595,1.51708861 C201.385443,1.49772152 203.109114,2.57582278 204.348608,4.71911392 Z" id="Shape"></path>
                    </g>
                    <g id="G">
                        <path d="M20.5226582,37.3332911 C16.8622785,36.9975949 13.6796203,35.4675949 10.9746835,32.7303797 C7.89531646,29.5993671 6.35886076,25.8421519 6.35886076,21.4587342 C6.35886076,16.9849367 7.92759494,13.1825316 11.0586076,10.0644304 C13.7183544,7.40468354 16.8751899,5.87468354 20.5226582,5.47443038 L20.5226582,0.206582278 C9.32202532,0.813417722 0.432531646,10.0837975 0.432531646,21.4393671 C0.432531646,32.7949367 9.32848101,42.0588608 20.5226582,42.6721519 L20.5226582,37.3332911 Z" id="Shape"></path>
                        <path d="M22.8660759,0.206582278 L22.8660759,5.37759494 C25.1320253,5.42924051 27.2624051,5.91341772 29.2443038,6.84303797 C31.2455696,7.8243038 33.2081013,9.41886076 35.1383544,11.6267089 L31.8201266,14.8029114 C29.2894937,11.433038 26.2036709,9.74810127 22.5691139,9.74810127 C19.3025316,9.74810127 16.5653165,10.8713924 14.3574684,13.1244304 C12.1431646,15.3387342 11.0392405,18.1082278 11.0392405,21.4393671 C11.0392405,24.8737975 12.2722785,27.7078481 14.7383544,29.9350633 C17.043038,32.0008861 19.5413924,33.0337975 22.2334177,33.0337975 C24.5251899,33.0337975 26.584557,32.2655696 28.411519,30.7226582 C30.238481,29.1668354 31.258481,27.3075949 31.471519,25.138481 L23.7698734,25.138481 L23.7698734,20.761519 L36.5198734,20.761519 L36.5198734,21.781519 C36.5198734,24.0991139 36.2487342,26.1520253 35.7,27.9402532 C35.1641772,29.5929114 34.2668354,31.1358228 33.001519,32.575443 C30.3094937,35.6031646 26.9331646,37.2106329 22.8660759,37.3913924 L22.8660759,42.6721519 C34.0667089,42.0653165 42.9562025,32.7949367 42.9562025,21.4393671 C42.9562025,10.0837975 34.0667089,0.813417722 22.8660759,0.206582278 Z" id="Shape"></path>
                    </g>
                </g>
            </g>
        </g>
    </g>
</svg>